<?xml version="1.0" encoding="UTF-8" standalone="no"?>
<!DOCTYPE svg PUBLIC "-//W3C//DTD SVG 1.1//EN"
 "http://www.w3.org/Graphics/SVG/1.1/DTD/svg11.dtd">
<!-- Generated by graphviz version 2.43.0 (0)
 -->
<!-- Title: %3 Pages: 1 -->
<svg width="90pt" height="228pt"
 viewBox="0.00 0.00 90.00 227.60" xmlns="http://www.w3.org/2000/svg" xmlns:xlink="http://www.w3.org/1999/xlink">
<g id="graph0" class="graph" transform="scale(1 1) rotate(0) translate(4 223.6)">
<title>%3</title>
<polygon fill="white" stroke="transparent" points="-4,4 -4,-223.6 86,-223.6 86,4 -4,4"/>
<!-- X -->
<g id="node1" class="node">
<title>X</title>
<ellipse fill="none" stroke="black" cx="55" cy="-90" rx="27" ry="18"/>
<text text-anchor="middle" x="55" y="-86.3" font-family="Times,serif" font-size="14.00">X</text>
</g>
<!-- Y -->
<g id="node2" class="node">
<title>Y</title>
<ellipse fill="none" stroke="black" cx="27" cy="-18" rx="27" ry="18"/>
<text text-anchor="middle" x="27" y="-14.3" font-family="Times,serif" font-size="14.00">Y</text>
</g>
<!-- X&#45;&gt;Y -->
<g id="edge2" class="edge">
<title>X&#45;&gt;Y</title>
<path fill="none" stroke="black" d="M48.36,-72.41C45.09,-64.22 41.06,-54.14 37.38,-44.95"/>
<polygon fill="black" stroke="black" points="40.55,-43.45 33.59,-35.47 34.05,-46.05 40.55,-43.45"/>
</g>
<!-- Z -->
<g id="node3" class="node">
<title>Z</title>
<ellipse fill="none" stroke="black" cx="55" cy="-162" rx="27" ry="18"/>
<text text-anchor="middle" x="55" y="-158.3" font-family="Times,serif" font-size="14.00">Z</text>
</g>
<!-- Z&#45;&gt;X -->
<g id="edge1" class="edge">
<title>Z&#45;&gt;X</title>
<path fill="none" stroke="black" d="M55,-143.7C55,-135.98 55,-126.71 55,-118.11"/>
<polygon fill="black" stroke="black" points="58.5,-118.1 55,-108.1 51.5,-118.1 58.5,-118.1"/>
</g>
<!-- Unobserved_0 -->
<g id="node4" class="node">
<title>Unobserved_0</title>
<ellipse fill="black" stroke="black" cx="27" cy="-217.8" rx="1.8" ry="1.8"/>
</g>
<!-- Unobserved_0&#45;&gt;Y -->
<g id="edge4" class="edge">
<title>Unobserved_0&#45;&gt;Y</title>
<path fill="none" stroke="black" stroke-dasharray="5,2" d="M26.73,-215.9C25.52,-211.82 20.56,-194.56 19,-180 13.87,-132.27 15.41,-119.87 19,-72 19.64,-63.52 20.84,-54.34 22.12,-46.04"/>
<polygon fill="black" stroke="black" points="25.58,-46.55 23.75,-36.11 18.68,-45.41 25.58,-46.55"/>
</g>
<!-- Unobserved_0&#45;&gt;Z -->
<g id="edge3" class="edge">
<title>Unobserved_0&#45;&gt;Z</title>
<path fill="none" stroke="black" stroke-dasharray="5,2" d="M27.49,-215.87C29.28,-212.42 35.75,-199.99 41.96,-188.05"/>
<polygon fill="black" stroke="black" points="45.07,-189.66 46.58,-179.17 38.86,-186.43 45.07,-189.66"/>
</g>
</g>
</svg>